<svg xmlns="http://www.w3.org/2000/svg" viewBox="0 0 300.33 300.33"><defs><style>.cls-1,.cls-2,.cls-3,.cls-5,.cls-6{fill:#fff;}.cls-2,.cls-3{font-size:18px;}.cls-2,.cls-3,.cls-5,.cls-6{font-family:LEMONMILK-Regular, LEMON MILK;}.cls-2{letter-spacing:0.1em;}.cls-3{letter-spacing:0.5em;}.cls-4,.cls-7{fill:#1d1d1b;}.cls-5,.cls-6{font-size:23px;}.cls-5{letter-spacing:0.32em;}.cls-6{letter-spacing:0.04em;}.cls-7{font-size:12px;font-family:MyriadPro-Regular, Myriad Pro;}</style></defs><title>Fichier 7</title><g id="Calque_2" data-name="Calque 2"><g id="Calque_2-2" data-name="Calque 2"><path class="cls-1" d="M182.54,146.06a7.38,7.38,0,0,0,7.38,7.38,7.18,7.18,0,0,0,2.09-.3,7.39,7.39,0,0,0,5.3-7.08,7.22,7.22,0,0,0-1.05-3.77,7.37,7.37,0,0,0-13.72,3.77Z"/><polygon class="cls-1" points="182.54 169.34 190.97 169.34 197.31 169.34 197.31 159.45 197.31 156.13 182.54 156.13 182.54 169.34"/><polygon class="cls-1" points="182.54 209.09 190.97 209.09 197.31 209.09 197.31 196.86 197.31 193.54 182.54 193.54 182.54 209.09"/><polygon class="cls-1" points="196.89 109.83 190.18 123.87 189.87 124.51 137.61 124.51 148.23 109.83 196.89 109.83"/><path class="cls-1" d="M204.83,155.53a7.39,7.39,0,0,1-5.3,7.08,7.3,7.3,0,0,1-1-3.76,7.39,7.39,0,0,1,5.29-7.09A7.22,7.22,0,0,1,204.83,155.53Z"/><path class="cls-1" d="M198.49,158.85a7.3,7.3,0,0,0,1,3.76,7.18,7.18,0,0,1-2.09.3,7.39,7.39,0,1,1,6.34-11.15A7.39,7.39,0,0,0,198.49,158.85Z"/><text class="cls-2" transform="translate(92.16 237.89)">graphiste</text><text class="cls-3" transform="translate(107.68 250.77)">graphiste</text><rect class="cls-4" width="300.33" height="300.33"/><text class="cls-5" transform="translate(51.4 241.82)">graphiste</text><text class="cls-6" transform="translate(55.4 263.1)">web-designer</text><path class="cls-1" d="M123.59,102.54l.87-1.21,10.62-14.68,22-30.46H139.87L111.59,95.6l-4.18,5.82V56.19H92.65v94.45h14.76v-45.7l4.18,5.47,28.6,37.42.06.08.4-.84,5.28-11.27,1.19-2.54,0,0Z"/><path class="cls-1" d="M182.54,133.55a7.38,7.38,0,0,0,7.38,7.38,7.18,7.18,0,0,0,2.09-.3,7.39,7.39,0,0,0,5.3-7.08,7.22,7.22,0,0,0-1.05-3.77,7.37,7.37,0,0,0-13.72,3.77Z"/><polygon class="cls-1" points="182.54 156.83 190.97 156.83 197.31 156.83 197.31 146.94 197.31 143.62 182.54 143.62 182.54 156.83"/><polygon class="cls-1" points="154.3 161.54 158.91 151.84 160.03 149.48 161.63 146.11 170.49 127.48 173.41 121.34 180.78 105.85 181.1 105.17 182.53 102.17 182.66 101.89 189.37 87.85 140.71 87.85 130.09 102.53 166.63 102.53 165.07 105.85 152.06 133.62 150.47 137 145.19 148.27 143.6 151.66 132.04 176.31 182.54 176.31 182.54 176.32 197.31 176.32 197.31 176.31 207.68 176.31 207.68 161.54 154.3 161.54"/><polygon class="cls-1" points="182.54 196.58 190.97 196.58 197.31 196.58 197.31 184.35 197.31 181.03 182.54 181.03 182.54 196.58"/><text class="cls-7" transform="translate(254.29 62)">k</text></g></g></svg>