<svg xmlns="http://www.w3.org/2000/svg" viewBox="0 0 197.53 213.08"><defs><style>.cls-1,.cls-2{font-size:23px;font-family:LEMONMILK-Regular, LEMON MILK;}.cls-1,.cls-2,.cls-3{fill:#fff;}.cls-1{letter-spacing:0.32em;}.cls-2{letter-spacing:0.04em;}</style></defs><title>Fichier 7</title><g id="Calque_2" data-name="Calque 2"><g id="Calque_2-2" data-name="Calque 2"><text class="cls-1" transform="translate(0 185.64)">graphiste</text><text class="cls-2" transform="translate(4 206.92)">web-designer</text><path class="cls-3" d="M72.19,46.35l.87-1.21L83.68,30.46,105.7,0H88.47L60.19,39.41,56,45.23V0H41.25V94.45H56V48.75l4.18,5.47,28.6,37.42.06.08.4-.84,5.28-11.27,1.19-2.54,0,0Z"/><path class="cls-3" d="M131.14,77.36a7.38,7.38,0,0,0,7.38,7.38,7.18,7.18,0,0,0,2.09-.3,7.39,7.39,0,0,0,5.3-7.08,7.22,7.22,0,0,0-1-3.77,7.37,7.37,0,0,0-13.72,3.77Z"/><polygon class="cls-3" points="131.14 100.64 139.57 100.64 145.91 100.64 145.91 90.75 145.91 87.43 131.14 87.43 131.14 100.64"/><polygon class="cls-3" points="102.9 105.35 107.51 95.65 108.63 93.29 110.23 89.92 119.09 71.29 122.01 65.15 129.38 49.66 129.7 48.98 131.13 45.98 131.26 45.71 137.97 31.67 89.31 31.67 78.69 46.35 115.23 46.35 113.67 49.66 100.66 77.43 99.07 80.81 93.79 92.08 92.2 95.47 80.64 120.12 131.14 120.12 131.14 120.13 145.91 120.13 145.91 120.12 156.28 120.12 156.28 105.35 102.9 105.35"/><polygon class="cls-3" points="131.14 140.39 139.57 140.39 145.91 140.39 145.91 128.16 145.91 124.84 131.14 124.84 131.14 140.39"/></g></g></svg>